<mxfile host="Electron" modified="2023-05-06T21:15:55.181Z" agent="Mozilla/5.0 (X11; Linux x86_64) AppleWebKit/537.36 (KHTML, like Gecko) draw.io/21.1.2 Chrome/106.0.5249.199 Electron/21.4.3 Safari/537.36" etag="bw_DAL0RBKLYFDJLcGkY" version="21.1.2" type="device">
  <diagram id="hV8F6hlMBckjeCHkbNd2" name="Page-1">
    <mxGraphModel dx="821" dy="786" grid="1" gridSize="10" guides="1" tooltips="1" connect="1" arrows="1" fold="1" page="1" pageScale="1" pageWidth="850" pageHeight="1100" background="#000000" math="0" shadow="0">
      <root>
        <mxCell id="0" />
        <mxCell id="1" parent="0" />
        <mxCell id="IorvdKRKqagVmVlc04_W-179" value="" style="rounded=1;whiteSpace=wrap;html=1;fillColor=#CCCCCC;" parent="1" vertex="1">
          <mxGeometry x="680" y="365" width="40" height="40" as="geometry" />
        </mxCell>
        <mxCell id="IorvdKRKqagVmVlc04_W-169" value="" style="rounded=1;whiteSpace=wrap;html=1;" parent="1" vertex="1">
          <mxGeometry x="480" y="360" width="40" height="40" as="geometry" />
        </mxCell>
        <mxCell id="IorvdKRKqagVmVlc04_W-177" value="" style="rounded=1;whiteSpace=wrap;html=1;" parent="1" vertex="1">
          <mxGeometry x="640" y="365" width="40" height="40" as="geometry" />
        </mxCell>
        <mxCell id="IorvdKRKqagVmVlc04_W-201" value="" style="rounded=1;whiteSpace=wrap;html=1;" parent="1" vertex="1">
          <mxGeometry x="640" y="445" width="40" height="40" as="geometry" />
        </mxCell>
        <mxCell id="IorvdKRKqagVmVlc04_W-162" value="" style="rounded=1;whiteSpace=wrap;html=1;fillColor=#CCCCCC;" parent="1" vertex="1">
          <mxGeometry x="120" y="445" width="40" height="40" as="geometry" />
        </mxCell>
        <mxCell id="IorvdKRKqagVmVlc04_W-1" value="" style="rounded=1;whiteSpace=wrap;html=1;fillColor=#FFFFFF;" parent="1" vertex="1">
          <mxGeometry x="160" y="160" width="40" height="40" as="geometry" />
        </mxCell>
        <mxCell id="IorvdKRKqagVmVlc04_W-3" value="" style="rounded=1;whiteSpace=wrap;html=1;" parent="1" vertex="1">
          <mxGeometry x="200" y="150" width="40" height="40" as="geometry" />
        </mxCell>
        <mxCell id="IorvdKRKqagVmVlc04_W-4" value="W" style="text;html=1;strokeColor=none;fillColor=none;align=center;verticalAlign=middle;whiteSpace=wrap;rounded=0;" parent="1" vertex="1">
          <mxGeometry x="200" y="155" width="40" height="30" as="geometry" />
        </mxCell>
        <mxCell id="IorvdKRKqagVmVlc04_W-5" value="" style="rounded=1;whiteSpace=wrap;html=1;" parent="1" vertex="1">
          <mxGeometry x="240" y="140" width="40" height="40" as="geometry" />
        </mxCell>
        <mxCell id="IorvdKRKqagVmVlc04_W-6" value="F" style="text;html=1;strokeColor=none;fillColor=none;align=center;verticalAlign=middle;whiteSpace=wrap;rounded=0;" parent="1" vertex="1">
          <mxGeometry x="240" y="145" width="40" height="30" as="geometry" />
        </mxCell>
        <mxCell id="IorvdKRKqagVmVlc04_W-7" value="" style="rounded=1;whiteSpace=wrap;html=1;" parent="1" vertex="1">
          <mxGeometry x="280" y="150" width="40" height="40" as="geometry" />
        </mxCell>
        <mxCell id="IorvdKRKqagVmVlc04_W-8" value="P" style="text;html=1;strokeColor=none;fillColor=none;align=center;verticalAlign=middle;whiteSpace=wrap;rounded=0;" parent="1" vertex="1">
          <mxGeometry x="280" y="155" width="40" height="30" as="geometry" />
        </mxCell>
        <mxCell id="IorvdKRKqagVmVlc04_W-9" value="" style="rounded=1;whiteSpace=wrap;html=1;" parent="1" vertex="1">
          <mxGeometry x="320" y="155" width="40" height="40" as="geometry" />
        </mxCell>
        <mxCell id="IorvdKRKqagVmVlc04_W-10" value="B" style="text;html=1;strokeColor=none;fillColor=none;align=center;verticalAlign=middle;whiteSpace=wrap;rounded=0;" parent="1" vertex="1">
          <mxGeometry x="320" y="160" width="40" height="30" as="geometry" />
        </mxCell>
        <mxCell id="IorvdKRKqagVmVlc04_W-13" value="" style="rounded=1;whiteSpace=wrap;html=1;fillColor=#FFFFFF;" parent="1" vertex="1">
          <mxGeometry x="120" y="160" width="40" height="40" as="geometry" />
        </mxCell>
        <mxCell id="IorvdKRKqagVmVlc04_W-15" value="" style="rounded=1;whiteSpace=wrap;html=1;" parent="1" vertex="1">
          <mxGeometry x="160" y="200" width="40" height="40" as="geometry" />
        </mxCell>
        <mxCell id="IorvdKRKqagVmVlc04_W-16" value="A" style="text;html=1;strokeColor=none;fillColor=none;align=center;verticalAlign=middle;whiteSpace=wrap;rounded=0;" parent="1" vertex="1">
          <mxGeometry x="160" y="205" width="40" height="30" as="geometry" />
        </mxCell>
        <mxCell id="IorvdKRKqagVmVlc04_W-17" value="" style="rounded=1;whiteSpace=wrap;html=1;" parent="1" vertex="1">
          <mxGeometry x="200" y="190" width="40" height="40" as="geometry" />
        </mxCell>
        <mxCell id="IorvdKRKqagVmVlc04_W-18" value="R" style="text;html=1;strokeColor=none;fillColor=none;align=center;verticalAlign=middle;whiteSpace=wrap;rounded=0;" parent="1" vertex="1">
          <mxGeometry x="200" y="195" width="40" height="30" as="geometry" />
        </mxCell>
        <mxCell id="IorvdKRKqagVmVlc04_W-19" value="" style="rounded=1;whiteSpace=wrap;html=1;" parent="1" vertex="1">
          <mxGeometry x="240" y="180" width="40" height="40" as="geometry" />
        </mxCell>
        <mxCell id="IorvdKRKqagVmVlc04_W-20" value="S" style="text;html=1;strokeColor=none;fillColor=none;align=center;verticalAlign=middle;whiteSpace=wrap;rounded=0;" parent="1" vertex="1">
          <mxGeometry x="240" y="185" width="40" height="30" as="geometry" />
        </mxCell>
        <mxCell id="IorvdKRKqagVmVlc04_W-21" value="" style="rounded=1;whiteSpace=wrap;html=1;" parent="1" vertex="1">
          <mxGeometry x="280" y="190" width="40" height="40" as="geometry" />
        </mxCell>
        <mxCell id="IorvdKRKqagVmVlc04_W-22" value="T" style="text;html=1;strokeColor=none;fillColor=none;align=center;verticalAlign=middle;whiteSpace=wrap;rounded=0;" parent="1" vertex="1">
          <mxGeometry x="280" y="195" width="40" height="30" as="geometry" />
        </mxCell>
        <mxCell id="IorvdKRKqagVmVlc04_W-23" value="" style="rounded=1;whiteSpace=wrap;html=1;" parent="1" vertex="1">
          <mxGeometry x="320" y="195" width="40" height="40" as="geometry" />
        </mxCell>
        <mxCell id="IorvdKRKqagVmVlc04_W-24" value="G" style="text;html=1;strokeColor=none;fillColor=none;align=center;verticalAlign=middle;whiteSpace=wrap;rounded=0;" parent="1" vertex="1">
          <mxGeometry x="320" y="200" width="40" height="30" as="geometry" />
        </mxCell>
        <mxCell id="IorvdKRKqagVmVlc04_W-25" value="" style="rounded=1;whiteSpace=wrap;html=1;" parent="1" vertex="1">
          <mxGeometry x="120" y="200" width="40" height="40" as="geometry" />
        </mxCell>
        <mxCell id="IorvdKRKqagVmVlc04_W-27" value="" style="rounded=1;whiteSpace=wrap;html=1;" parent="1" vertex="1">
          <mxGeometry x="160" y="240" width="40" height="40" as="geometry" />
        </mxCell>
        <mxCell id="IorvdKRKqagVmVlc04_W-28" value="Z" style="text;html=1;strokeColor=none;fillColor=none;align=center;verticalAlign=middle;whiteSpace=wrap;rounded=0;" parent="1" vertex="1">
          <mxGeometry x="160" y="245" width="40" height="30" as="geometry" />
        </mxCell>
        <mxCell id="IorvdKRKqagVmVlc04_W-29" value="" style="rounded=1;whiteSpace=wrap;html=1;" parent="1" vertex="1">
          <mxGeometry x="200" y="230" width="40" height="40" as="geometry" />
        </mxCell>
        <mxCell id="IorvdKRKqagVmVlc04_W-30" value="X" style="text;html=1;strokeColor=none;fillColor=none;align=center;verticalAlign=middle;whiteSpace=wrap;rounded=0;" parent="1" vertex="1">
          <mxGeometry x="200" y="235" width="40" height="30" as="geometry" />
        </mxCell>
        <mxCell id="IorvdKRKqagVmVlc04_W-31" value="" style="rounded=1;whiteSpace=wrap;html=1;" parent="1" vertex="1">
          <mxGeometry x="240" y="220" width="40" height="40" as="geometry" />
        </mxCell>
        <mxCell id="IorvdKRKqagVmVlc04_W-32" value="C" style="text;html=1;strokeColor=none;fillColor=none;align=center;verticalAlign=middle;whiteSpace=wrap;rounded=0;" parent="1" vertex="1">
          <mxGeometry x="240" y="225" width="40" height="30" as="geometry" />
        </mxCell>
        <mxCell id="IorvdKRKqagVmVlc04_W-33" value="" style="rounded=1;whiteSpace=wrap;html=1;" parent="1" vertex="1">
          <mxGeometry x="280" y="230" width="40" height="40" as="geometry" />
        </mxCell>
        <mxCell id="IorvdKRKqagVmVlc04_W-34" value="D" style="text;html=1;strokeColor=none;fillColor=none;align=center;verticalAlign=middle;whiteSpace=wrap;rounded=0;" parent="1" vertex="1">
          <mxGeometry x="280" y="235" width="40" height="30" as="geometry" />
        </mxCell>
        <mxCell id="IorvdKRKqagVmVlc04_W-35" value="" style="rounded=1;whiteSpace=wrap;html=1;" parent="1" vertex="1">
          <mxGeometry x="320" y="235" width="40" height="40" as="geometry" />
        </mxCell>
        <mxCell id="IorvdKRKqagVmVlc04_W-36" value="V" style="text;html=1;strokeColor=none;fillColor=none;align=center;verticalAlign=middle;whiteSpace=wrap;rounded=0;" parent="1" vertex="1">
          <mxGeometry x="320" y="240" width="40" height="30" as="geometry" />
        </mxCell>
        <mxCell id="IorvdKRKqagVmVlc04_W-37" value="" style="rounded=1;whiteSpace=wrap;html=1;fillColor=#FFFFFF;" parent="1" vertex="1">
          <mxGeometry x="120" y="240" width="40" height="40" as="geometry" />
        </mxCell>
        <mxCell id="IorvdKRKqagVmVlc04_W-39" value="" style="rounded=1;whiteSpace=wrap;html=1;" parent="1" vertex="1">
          <mxGeometry x="260" y="280" width="40" height="40" as="geometry" />
        </mxCell>
        <mxCell id="IorvdKRKqagVmVlc04_W-41" value="" style="rounded=1;whiteSpace=wrap;html=1;rotation=15;" parent="1" vertex="1">
          <mxGeometry x="310" y="285" width="40" height="40" as="geometry" />
        </mxCell>
        <mxCell id="IorvdKRKqagVmVlc04_W-43" value="" style="rounded=1;whiteSpace=wrap;html=1;rotation=30;" parent="1" vertex="1">
          <mxGeometry x="360" y="285" width="40" height="60" as="geometry" />
        </mxCell>
        <mxCell id="IorvdKRKqagVmVlc04_W-86" value="" style="rounded=1;whiteSpace=wrap;html=1;" parent="1" vertex="1">
          <mxGeometry x="480" y="155" width="40" height="40" as="geometry" />
        </mxCell>
        <mxCell id="IorvdKRKqagVmVlc04_W-87" value="J" style="text;html=1;strokeColor=none;fillColor=none;align=center;verticalAlign=middle;whiteSpace=wrap;rounded=0;" parent="1" vertex="1">
          <mxGeometry x="480" y="160" width="40" height="30" as="geometry" />
        </mxCell>
        <mxCell id="IorvdKRKqagVmVlc04_W-88" value="" style="rounded=1;whiteSpace=wrap;html=1;" parent="1" vertex="1">
          <mxGeometry x="520" y="150" width="40" height="40" as="geometry" />
        </mxCell>
        <mxCell id="IorvdKRKqagVmVlc04_W-89" value="L" style="text;html=1;strokeColor=none;fillColor=none;align=center;verticalAlign=middle;whiteSpace=wrap;rounded=0;" parent="1" vertex="1">
          <mxGeometry x="520" y="155" width="40" height="30" as="geometry" />
        </mxCell>
        <mxCell id="IorvdKRKqagVmVlc04_W-90" value="" style="rounded=1;whiteSpace=wrap;html=1;" parent="1" vertex="1">
          <mxGeometry x="560" y="140" width="40" height="40" as="geometry" />
        </mxCell>
        <mxCell id="IorvdKRKqagVmVlc04_W-91" value="U" style="text;html=1;strokeColor=none;fillColor=none;align=center;verticalAlign=middle;whiteSpace=wrap;rounded=0;" parent="1" vertex="1">
          <mxGeometry x="560" y="145" width="40" height="30" as="geometry" />
        </mxCell>
        <mxCell id="IorvdKRKqagVmVlc04_W-92" value="" style="rounded=1;whiteSpace=wrap;html=1;" parent="1" vertex="1">
          <mxGeometry x="600" y="150" width="40" height="40" as="geometry" />
        </mxCell>
        <mxCell id="IorvdKRKqagVmVlc04_W-93" value="Y" style="text;html=1;strokeColor=none;fillColor=none;align=center;verticalAlign=middle;whiteSpace=wrap;rounded=0;" parent="1" vertex="1">
          <mxGeometry x="600" y="155" width="40" height="30" as="geometry" />
        </mxCell>
        <mxCell id="IorvdKRKqagVmVlc04_W-94" value="" style="rounded=1;whiteSpace=wrap;html=1;fillColor=#FFFFFF;" parent="1" vertex="1">
          <mxGeometry x="640" y="160" width="40" height="40" as="geometry" />
        </mxCell>
        <mxCell id="IorvdKRKqagVmVlc04_W-96" value="" style="rounded=1;whiteSpace=wrap;html=1;fillColor=#FFFFFF;" parent="1" vertex="1">
          <mxGeometry x="680" y="160" width="40" height="40" as="geometry" />
        </mxCell>
        <mxCell id="IorvdKRKqagVmVlc04_W-98" value="" style="rounded=1;whiteSpace=wrap;html=1;" parent="1" vertex="1">
          <mxGeometry x="480" y="195" width="40" height="40" as="geometry" />
        </mxCell>
        <mxCell id="IorvdKRKqagVmVlc04_W-99" value="M" style="text;html=1;strokeColor=none;fillColor=none;align=center;verticalAlign=middle;whiteSpace=wrap;rounded=0;" parent="1" vertex="1">
          <mxGeometry x="480" y="200" width="40" height="30" as="geometry" />
        </mxCell>
        <mxCell id="IorvdKRKqagVmVlc04_W-100" value="" style="rounded=1;whiteSpace=wrap;html=1;" parent="1" vertex="1">
          <mxGeometry x="520" y="190" width="40" height="40" as="geometry" />
        </mxCell>
        <mxCell id="IorvdKRKqagVmVlc04_W-101" value="N" style="text;html=1;strokeColor=none;fillColor=none;align=center;verticalAlign=middle;whiteSpace=wrap;rounded=0;" parent="1" vertex="1">
          <mxGeometry x="520" y="195" width="40" height="30" as="geometry" />
        </mxCell>
        <mxCell id="IorvdKRKqagVmVlc04_W-102" value="" style="rounded=1;whiteSpace=wrap;html=1;" parent="1" vertex="1">
          <mxGeometry x="560" y="180" width="40" height="40" as="geometry" />
        </mxCell>
        <mxCell id="IorvdKRKqagVmVlc04_W-103" value="E" style="text;html=1;strokeColor=none;fillColor=none;align=center;verticalAlign=middle;whiteSpace=wrap;rounded=0;" parent="1" vertex="1">
          <mxGeometry x="560" y="185" width="40" height="30" as="geometry" />
        </mxCell>
        <mxCell id="IorvdKRKqagVmVlc04_W-104" value="" style="rounded=1;whiteSpace=wrap;html=1;" parent="1" vertex="1">
          <mxGeometry x="600" y="190" width="40" height="40" as="geometry" />
        </mxCell>
        <mxCell id="IorvdKRKqagVmVlc04_W-105" value="I" style="text;html=1;strokeColor=none;fillColor=none;align=center;verticalAlign=middle;whiteSpace=wrap;rounded=0;" parent="1" vertex="1">
          <mxGeometry x="600" y="195" width="40" height="30" as="geometry" />
        </mxCell>
        <mxCell id="IorvdKRKqagVmVlc04_W-106" value="" style="rounded=1;whiteSpace=wrap;html=1;" parent="1" vertex="1">
          <mxGeometry x="640" y="200" width="40" height="40" as="geometry" />
        </mxCell>
        <mxCell id="IorvdKRKqagVmVlc04_W-107" value="O" style="text;html=1;strokeColor=none;fillColor=none;align=center;verticalAlign=middle;whiteSpace=wrap;rounded=0;" parent="1" vertex="1">
          <mxGeometry x="640" y="205" width="40" height="30" as="geometry" />
        </mxCell>
        <mxCell id="IorvdKRKqagVmVlc04_W-108" value="" style="rounded=1;whiteSpace=wrap;html=1;" parent="1" vertex="1">
          <mxGeometry x="680" y="200" width="40" height="40" as="geometry" />
        </mxCell>
        <mxCell id="IorvdKRKqagVmVlc04_W-110" value="" style="rounded=1;whiteSpace=wrap;html=1;" parent="1" vertex="1">
          <mxGeometry x="480" y="235" width="40" height="40" as="geometry" />
        </mxCell>
        <mxCell id="IorvdKRKqagVmVlc04_W-111" value="K" style="text;html=1;strokeColor=none;fillColor=none;align=center;verticalAlign=middle;whiteSpace=wrap;rounded=0;" parent="1" vertex="1">
          <mxGeometry x="480" y="240" width="40" height="30" as="geometry" />
        </mxCell>
        <mxCell id="IorvdKRKqagVmVlc04_W-112" value="" style="rounded=1;whiteSpace=wrap;html=1;" parent="1" vertex="1">
          <mxGeometry x="520" y="230" width="40" height="40" as="geometry" />
        </mxCell>
        <mxCell id="IorvdKRKqagVmVlc04_W-113" value="H" style="text;html=1;strokeColor=none;fillColor=none;align=center;verticalAlign=middle;whiteSpace=wrap;rounded=0;" parent="1" vertex="1">
          <mxGeometry x="520" y="235" width="40" height="30" as="geometry" />
        </mxCell>
        <mxCell id="IorvdKRKqagVmVlc04_W-114" value="" style="rounded=1;whiteSpace=wrap;html=1;" parent="1" vertex="1">
          <mxGeometry x="560" y="220" width="40" height="40" as="geometry" />
        </mxCell>
        <mxCell id="IorvdKRKqagVmVlc04_W-115" value=", ;" style="text;html=1;strokeColor=none;fillColor=none;align=center;verticalAlign=middle;whiteSpace=wrap;rounded=0;" parent="1" vertex="1">
          <mxGeometry x="560" y="225" width="40" height="30" as="geometry" />
        </mxCell>
        <mxCell id="IorvdKRKqagVmVlc04_W-116" value="" style="rounded=1;whiteSpace=wrap;html=1;" parent="1" vertex="1">
          <mxGeometry x="600" y="230" width="40" height="40" as="geometry" />
        </mxCell>
        <mxCell id="IorvdKRKqagVmVlc04_W-117" value=". :" style="text;html=1;strokeColor=none;fillColor=none;align=center;verticalAlign=middle;whiteSpace=wrap;rounded=0;" parent="1" vertex="1">
          <mxGeometry x="600" y="235" width="40" height="30" as="geometry" />
        </mxCell>
        <mxCell id="IorvdKRKqagVmVlc04_W-118" value="" style="rounded=1;whiteSpace=wrap;html=1;" parent="1" vertex="1">
          <mxGeometry x="640" y="240" width="40" height="40" as="geometry" />
        </mxCell>
        <mxCell id="IorvdKRKqagVmVlc04_W-120" value="" style="rounded=1;whiteSpace=wrap;html=1;fillColor=#FFFFFF;" parent="1" vertex="1">
          <mxGeometry x="680" y="240" width="40" height="40" as="geometry" />
        </mxCell>
        <mxCell id="IorvdKRKqagVmVlc04_W-122" value="" style="rounded=1;whiteSpace=wrap;html=1;" parent="1" vertex="1">
          <mxGeometry x="540" y="280" width="40" height="40" as="geometry" />
        </mxCell>
        <mxCell id="IorvdKRKqagVmVlc04_W-124" value="" style="rounded=1;whiteSpace=wrap;html=1;rotation=-15;" parent="1" vertex="1">
          <mxGeometry x="490" y="285" width="40" height="40" as="geometry" />
        </mxCell>
        <mxCell id="IorvdKRKqagVmVlc04_W-125" value="" style="rounded=1;whiteSpace=wrap;html=1;rotation=-30;" parent="1" vertex="1">
          <mxGeometry x="440" y="285" width="40" height="60" as="geometry" />
        </mxCell>
        <mxCell id="IorvdKRKqagVmVlc04_W-126" value="spc" style="text;html=1;strokeColor=none;fillColor=none;align=center;verticalAlign=middle;whiteSpace=wrap;rounded=0;" parent="1" vertex="1">
          <mxGeometry x="440" y="300" width="40" height="30" as="geometry" />
        </mxCell>
        <mxCell id="IorvdKRKqagVmVlc04_W-128" value="" style="rounded=1;whiteSpace=wrap;html=1;" parent="1" vertex="1">
          <mxGeometry x="160" y="365" width="40" height="40" as="geometry" />
        </mxCell>
        <mxCell id="IorvdKRKqagVmVlc04_W-130" value="" style="rounded=1;whiteSpace=wrap;html=1;" parent="1" vertex="1">
          <mxGeometry x="200" y="355" width="40" height="40" as="geometry" />
        </mxCell>
        <mxCell id="IorvdKRKqagVmVlc04_W-131" value="[" style="text;html=1;strokeColor=none;fillColor=none;align=center;verticalAlign=middle;whiteSpace=wrap;rounded=0;" parent="1" vertex="1">
          <mxGeometry x="200" y="360" width="40" height="30" as="geometry" />
        </mxCell>
        <mxCell id="IorvdKRKqagVmVlc04_W-132" value="" style="rounded=1;whiteSpace=wrap;html=1;" parent="1" vertex="1">
          <mxGeometry x="240" y="345" width="40" height="40" as="geometry" />
        </mxCell>
        <mxCell id="IorvdKRKqagVmVlc04_W-133" value="(" style="text;html=1;strokeColor=none;fillColor=none;align=center;verticalAlign=middle;whiteSpace=wrap;rounded=0;" parent="1" vertex="1">
          <mxGeometry x="240" y="350" width="40" height="30" as="geometry" />
        </mxCell>
        <mxCell id="IorvdKRKqagVmVlc04_W-134" value="" style="rounded=1;whiteSpace=wrap;html=1;" parent="1" vertex="1">
          <mxGeometry x="280" y="355" width="40" height="40" as="geometry" />
        </mxCell>
        <mxCell id="IorvdKRKqagVmVlc04_W-135" value="\" style="text;html=1;strokeColor=none;fillColor=none;align=center;verticalAlign=middle;whiteSpace=wrap;rounded=0;" parent="1" vertex="1">
          <mxGeometry x="280" y="360" width="40" height="30" as="geometry" />
        </mxCell>
        <mxCell id="IorvdKRKqagVmVlc04_W-136" value="" style="rounded=1;whiteSpace=wrap;html=1;" parent="1" vertex="1">
          <mxGeometry x="320" y="360" width="40" height="40" as="geometry" />
        </mxCell>
        <mxCell id="IorvdKRKqagVmVlc04_W-137" value="&amp;lt;" style="text;html=1;strokeColor=none;fillColor=none;align=center;verticalAlign=middle;whiteSpace=wrap;rounded=0;" parent="1" vertex="1">
          <mxGeometry x="320" y="365" width="40" height="30" as="geometry" />
        </mxCell>
        <mxCell id="IorvdKRKqagVmVlc04_W-138" value="" style="rounded=1;whiteSpace=wrap;html=1;fillColor=#CCCCCC;" parent="1" vertex="1">
          <mxGeometry x="120" y="365" width="40" height="40" as="geometry" />
        </mxCell>
        <mxCell id="IorvdKRKqagVmVlc04_W-140" value="" style="rounded=1;whiteSpace=wrap;html=1;" parent="1" vertex="1">
          <mxGeometry x="160" y="405" width="40" height="40" as="geometry" />
        </mxCell>
        <mxCell id="IorvdKRKqagVmVlc04_W-141" value="1" style="text;html=1;strokeColor=none;fillColor=none;align=center;verticalAlign=middle;whiteSpace=wrap;rounded=0;" parent="1" vertex="1">
          <mxGeometry x="160" y="410" width="40" height="30" as="geometry" />
        </mxCell>
        <mxCell id="IorvdKRKqagVmVlc04_W-142" value="" style="rounded=1;whiteSpace=wrap;html=1;" parent="1" vertex="1">
          <mxGeometry x="200" y="395" width="40" height="40" as="geometry" />
        </mxCell>
        <mxCell id="IorvdKRKqagVmVlc04_W-143" value="2" style="text;html=1;strokeColor=none;fillColor=none;align=center;verticalAlign=middle;whiteSpace=wrap;rounded=0;" parent="1" vertex="1">
          <mxGeometry x="200" y="400" width="40" height="30" as="geometry" />
        </mxCell>
        <mxCell id="IorvdKRKqagVmVlc04_W-144" value="" style="rounded=1;whiteSpace=wrap;html=1;" parent="1" vertex="1">
          <mxGeometry x="240" y="385" width="40" height="40" as="geometry" />
        </mxCell>
        <mxCell id="IorvdKRKqagVmVlc04_W-145" value="3" style="text;html=1;strokeColor=none;fillColor=none;align=center;verticalAlign=middle;whiteSpace=wrap;rounded=0;" parent="1" vertex="1">
          <mxGeometry x="240" y="390" width="40" height="30" as="geometry" />
        </mxCell>
        <mxCell id="IorvdKRKqagVmVlc04_W-146" value="" style="rounded=1;whiteSpace=wrap;html=1;" parent="1" vertex="1">
          <mxGeometry x="280" y="395" width="40" height="40" as="geometry" />
        </mxCell>
        <mxCell id="IorvdKRKqagVmVlc04_W-147" value="4" style="text;html=1;strokeColor=none;fillColor=none;align=center;verticalAlign=middle;whiteSpace=wrap;rounded=0;" parent="1" vertex="1">
          <mxGeometry x="280" y="400" width="40" height="30" as="geometry" />
        </mxCell>
        <mxCell id="IorvdKRKqagVmVlc04_W-148" value="" style="rounded=1;whiteSpace=wrap;html=1;" parent="1" vertex="1">
          <mxGeometry x="320" y="400" width="40" height="40" as="geometry" />
        </mxCell>
        <mxCell id="IorvdKRKqagVmVlc04_W-149" value="5" style="text;html=1;strokeColor=none;fillColor=none;align=center;verticalAlign=middle;whiteSpace=wrap;rounded=0;" parent="1" vertex="1">
          <mxGeometry x="320" y="405" width="40" height="30" as="geometry" />
        </mxCell>
        <mxCell id="IorvdKRKqagVmVlc04_W-150" value="" style="rounded=1;whiteSpace=wrap;html=1;fillColor=#CCCCCC;" parent="1" vertex="1">
          <mxGeometry x="120" y="405" width="40" height="40" as="geometry" />
        </mxCell>
        <mxCell id="IorvdKRKqagVmVlc04_W-152" value="" style="rounded=1;whiteSpace=wrap;html=1;" parent="1" vertex="1">
          <mxGeometry x="160" y="445" width="40" height="40" as="geometry" />
        </mxCell>
        <mxCell id="IorvdKRKqagVmVlc04_W-153" value="*" style="text;html=1;strokeColor=none;fillColor=none;align=center;verticalAlign=middle;whiteSpace=wrap;rounded=0;" parent="1" vertex="1">
          <mxGeometry x="640" y="450" width="40" height="30" as="geometry" />
        </mxCell>
        <mxCell id="IorvdKRKqagVmVlc04_W-154" value="" style="rounded=1;whiteSpace=wrap;html=1;" parent="1" vertex="1">
          <mxGeometry x="200" y="435" width="40" height="40" as="geometry" />
        </mxCell>
        <mxCell id="IorvdKRKqagVmVlc04_W-155" value="=" style="text;html=1;strokeColor=none;fillColor=none;align=center;verticalAlign=middle;whiteSpace=wrap;rounded=0;" parent="1" vertex="1">
          <mxGeometry x="200" y="440" width="40" height="30" as="geometry" />
        </mxCell>
        <mxCell id="IorvdKRKqagVmVlc04_W-156" value="" style="rounded=1;whiteSpace=wrap;html=1;" parent="1" vertex="1">
          <mxGeometry x="240" y="425" width="40" height="40" as="geometry" />
        </mxCell>
        <mxCell id="IorvdKRKqagVmVlc04_W-157" value="%" style="text;html=1;strokeColor=none;fillColor=none;align=center;verticalAlign=middle;whiteSpace=wrap;rounded=0;" parent="1" vertex="1">
          <mxGeometry x="240" y="430" width="40" height="30" as="geometry" />
        </mxCell>
        <mxCell id="IorvdKRKqagVmVlc04_W-158" value="" style="rounded=1;whiteSpace=wrap;html=1;" parent="1" vertex="1">
          <mxGeometry x="280" y="435" width="40" height="40" as="geometry" />
        </mxCell>
        <mxCell id="IorvdKRKqagVmVlc04_W-159" value="+" style="text;html=1;strokeColor=none;fillColor=none;align=center;verticalAlign=middle;whiteSpace=wrap;rounded=0;" parent="1" vertex="1">
          <mxGeometry x="280" y="440" width="40" height="30" as="geometry" />
        </mxCell>
        <mxCell id="IorvdKRKqagVmVlc04_W-160" value="" style="rounded=1;whiteSpace=wrap;html=1;" parent="1" vertex="1">
          <mxGeometry x="320" y="440" width="40" height="40" as="geometry" />
        </mxCell>
        <mxCell id="IorvdKRKqagVmVlc04_W-161" value="$" style="text;html=1;strokeColor=none;fillColor=none;align=center;verticalAlign=middle;whiteSpace=wrap;rounded=0;" parent="1" vertex="1">
          <mxGeometry x="320" y="445" width="40" height="30" as="geometry" />
        </mxCell>
        <mxCell id="IorvdKRKqagVmVlc04_W-164" value="" style="rounded=1;whiteSpace=wrap;html=1;fillColor=#CCCCCC;" parent="1" vertex="1">
          <mxGeometry x="260" y="485" width="40" height="40" as="geometry" />
        </mxCell>
        <mxCell id="IorvdKRKqagVmVlc04_W-166" value="" style="rounded=1;whiteSpace=wrap;html=1;rotation=15;fillColor=#CCCCCC;" parent="1" vertex="1">
          <mxGeometry x="310" y="490" width="40" height="40" as="geometry" />
        </mxCell>
        <mxCell id="IorvdKRKqagVmVlc04_W-167" value="" style="rounded=1;whiteSpace=wrap;html=1;rotation=30;fillColor=#CCCCCC;" parent="1" vertex="1">
          <mxGeometry x="360" y="490" width="40" height="60" as="geometry" />
        </mxCell>
        <mxCell id="IorvdKRKqagVmVlc04_W-170" value="&amp;gt;" style="text;html=1;strokeColor=none;fillColor=none;align=center;verticalAlign=middle;whiteSpace=wrap;rounded=0;" parent="1" vertex="1">
          <mxGeometry x="480" y="365" width="40" height="30" as="geometry" />
        </mxCell>
        <mxCell id="IorvdKRKqagVmVlc04_W-171" value="" style="rounded=1;whiteSpace=wrap;html=1;" parent="1" vertex="1">
          <mxGeometry x="520" y="355" width="40" height="40" as="geometry" />
        </mxCell>
        <mxCell id="IorvdKRKqagVmVlc04_W-172" value="/" style="text;html=1;strokeColor=none;fillColor=none;align=center;verticalAlign=middle;whiteSpace=wrap;rounded=0;" parent="1" vertex="1">
          <mxGeometry x="520" y="360" width="40" height="30" as="geometry" />
        </mxCell>
        <mxCell id="IorvdKRKqagVmVlc04_W-173" value="" style="rounded=1;whiteSpace=wrap;html=1;" parent="1" vertex="1">
          <mxGeometry x="560" y="345" width="40" height="40" as="geometry" />
        </mxCell>
        <mxCell id="IorvdKRKqagVmVlc04_W-174" value=")" style="text;html=1;strokeColor=none;fillColor=none;align=center;verticalAlign=middle;whiteSpace=wrap;rounded=0;" parent="1" vertex="1">
          <mxGeometry x="560" y="350" width="40" height="30" as="geometry" />
        </mxCell>
        <mxCell id="IorvdKRKqagVmVlc04_W-175" value="" style="rounded=1;whiteSpace=wrap;html=1;" parent="1" vertex="1">
          <mxGeometry x="600" y="355" width="40" height="40" as="geometry" />
        </mxCell>
        <mxCell id="IorvdKRKqagVmVlc04_W-176" value="]" style="text;html=1;strokeColor=none;fillColor=none;align=center;verticalAlign=middle;whiteSpace=wrap;rounded=0;" parent="1" vertex="1">
          <mxGeometry x="600" y="360" width="40" height="30" as="geometry" />
        </mxCell>
        <mxCell id="IorvdKRKqagVmVlc04_W-180" value="|" style="text;html=1;strokeColor=none;fillColor=none;align=center;verticalAlign=middle;whiteSpace=wrap;rounded=0;" parent="1" vertex="1">
          <mxGeometry x="159" y="450" width="40" height="30" as="geometry" />
        </mxCell>
        <mxCell id="IorvdKRKqagVmVlc04_W-181" value="" style="rounded=1;whiteSpace=wrap;html=1;" parent="1" vertex="1">
          <mxGeometry x="480" y="400" width="40" height="40" as="geometry" />
        </mxCell>
        <mxCell id="IorvdKRKqagVmVlc04_W-182" value="6" style="text;html=1;strokeColor=none;fillColor=none;align=center;verticalAlign=middle;whiteSpace=wrap;rounded=0;" parent="1" vertex="1">
          <mxGeometry x="480" y="405" width="40" height="30" as="geometry" />
        </mxCell>
        <mxCell id="IorvdKRKqagVmVlc04_W-183" value="" style="rounded=1;whiteSpace=wrap;html=1;" parent="1" vertex="1">
          <mxGeometry x="520" y="395" width="40" height="40" as="geometry" />
        </mxCell>
        <mxCell id="IorvdKRKqagVmVlc04_W-184" value="7" style="text;html=1;strokeColor=none;fillColor=none;align=center;verticalAlign=middle;whiteSpace=wrap;rounded=0;" parent="1" vertex="1">
          <mxGeometry x="520" y="400" width="40" height="30" as="geometry" />
        </mxCell>
        <mxCell id="IorvdKRKqagVmVlc04_W-185" value="" style="rounded=1;whiteSpace=wrap;html=1;" parent="1" vertex="1">
          <mxGeometry x="560" y="385" width="40" height="40" as="geometry" />
        </mxCell>
        <mxCell id="IorvdKRKqagVmVlc04_W-186" value="8" style="text;html=1;strokeColor=none;fillColor=none;align=center;verticalAlign=middle;whiteSpace=wrap;rounded=0;" parent="1" vertex="1">
          <mxGeometry x="560" y="390" width="40" height="30" as="geometry" />
        </mxCell>
        <mxCell id="IorvdKRKqagVmVlc04_W-187" value="" style="rounded=1;whiteSpace=wrap;html=1;" parent="1" vertex="1">
          <mxGeometry x="600" y="395" width="40" height="40" as="geometry" />
        </mxCell>
        <mxCell id="IorvdKRKqagVmVlc04_W-188" value="9" style="text;html=1;strokeColor=none;fillColor=none;align=center;verticalAlign=middle;whiteSpace=wrap;rounded=0;" parent="1" vertex="1">
          <mxGeometry x="600" y="400" width="40" height="30" as="geometry" />
        </mxCell>
        <mxCell id="IorvdKRKqagVmVlc04_W-189" value="" style="rounded=1;whiteSpace=wrap;html=1;" parent="1" vertex="1">
          <mxGeometry x="640" y="405" width="40" height="40" as="geometry" />
        </mxCell>
        <mxCell id="IorvdKRKqagVmVlc04_W-190" value="0" style="text;html=1;strokeColor=none;fillColor=none;align=center;verticalAlign=middle;whiteSpace=wrap;rounded=0;" parent="1" vertex="1">
          <mxGeometry x="640" y="410" width="40" height="30" as="geometry" />
        </mxCell>
        <mxCell id="IorvdKRKqagVmVlc04_W-191" value="" style="rounded=1;whiteSpace=wrap;html=1;fillColor=#CCCCCC;" parent="1" vertex="1">
          <mxGeometry x="680" y="405" width="40" height="40" as="geometry" />
        </mxCell>
        <mxCell id="IorvdKRKqagVmVlc04_W-193" value="" style="rounded=1;whiteSpace=wrap;html=1;" parent="1" vertex="1">
          <mxGeometry x="480" y="440" width="40" height="40" as="geometry" />
        </mxCell>
        <mxCell id="IorvdKRKqagVmVlc04_W-194" value="@" style="text;html=1;strokeColor=none;fillColor=none;align=center;verticalAlign=middle;whiteSpace=wrap;rounded=0;" parent="1" vertex="1">
          <mxGeometry x="480" y="445" width="40" height="30" as="geometry" />
        </mxCell>
        <mxCell id="IorvdKRKqagVmVlc04_W-195" value="" style="rounded=1;whiteSpace=wrap;html=1;" parent="1" vertex="1">
          <mxGeometry x="520" y="435" width="40" height="40" as="geometry" />
        </mxCell>
        <mxCell id="IorvdKRKqagVmVlc04_W-196" value="^" style="text;html=1;strokeColor=none;fillColor=none;align=center;verticalAlign=middle;whiteSpace=wrap;rounded=0;" parent="1" vertex="1">
          <mxGeometry x="520" y="440" width="40" height="30" as="geometry" />
        </mxCell>
        <mxCell id="IorvdKRKqagVmVlc04_W-197" value="" style="rounded=1;whiteSpace=wrap;html=1;" parent="1" vertex="1">
          <mxGeometry x="560" y="425" width="40" height="40" as="geometry" />
        </mxCell>
        <mxCell id="IorvdKRKqagVmVlc04_W-198" value="&amp;amp;" style="text;html=1;strokeColor=none;fillColor=none;align=center;verticalAlign=middle;whiteSpace=wrap;rounded=0;" parent="1" vertex="1">
          <mxGeometry x="560" y="430" width="40" height="30" as="geometry" />
        </mxCell>
        <mxCell id="IorvdKRKqagVmVlc04_W-199" value="" style="rounded=1;whiteSpace=wrap;html=1;" parent="1" vertex="1">
          <mxGeometry x="600" y="435" width="40" height="40" as="geometry" />
        </mxCell>
        <mxCell id="IorvdKRKqagVmVlc04_W-200" value="#" style="text;html=1;strokeColor=none;fillColor=none;align=center;verticalAlign=middle;whiteSpace=wrap;rounded=0;" parent="1" vertex="1">
          <mxGeometry x="600" y="440" width="40" height="30" as="geometry" />
        </mxCell>
        <mxCell id="IorvdKRKqagVmVlc04_W-203" value="" style="rounded=1;whiteSpace=wrap;html=1;fillColor=#CCCCCC;" parent="1" vertex="1">
          <mxGeometry x="680" y="445" width="40" height="40" as="geometry" />
        </mxCell>
        <mxCell id="IorvdKRKqagVmVlc04_W-205" value="" style="rounded=1;whiteSpace=wrap;html=1;fillColor=#CCCCCC;" parent="1" vertex="1">
          <mxGeometry x="540" y="485" width="40" height="40" as="geometry" />
        </mxCell>
        <mxCell id="IorvdKRKqagVmVlc04_W-207" value="" style="rounded=1;whiteSpace=wrap;html=1;rotation=-15;fillColor=#FFFFFF;" parent="1" vertex="1">
          <mxGeometry x="490" y="490" width="40" height="40" as="geometry" />
        </mxCell>
        <mxCell id="IorvdKRKqagVmVlc04_W-208" value="" style="rounded=1;whiteSpace=wrap;html=1;rotation=-30;fillColor=#4D4D4D;" parent="1" vertex="1">
          <mxGeometry x="440" y="490" width="40" height="60" as="geometry" />
        </mxCell>
        <mxCell id="IorvdKRKqagVmVlc04_W-210" value="" style="rounded=1;whiteSpace=wrap;html=1;" parent="1" vertex="1">
          <mxGeometry x="160" y="565" width="40" height="40" as="geometry" />
        </mxCell>
        <mxCell id="IorvdKRKqagVmVlc04_W-212" value="" style="rounded=1;whiteSpace=wrap;html=1;" parent="1" vertex="1">
          <mxGeometry x="200" y="555" width="40" height="40" as="geometry" />
        </mxCell>
        <mxCell id="IorvdKRKqagVmVlc04_W-214" value="" style="rounded=1;whiteSpace=wrap;html=1;" parent="1" vertex="1">
          <mxGeometry x="240" y="545" width="40" height="40" as="geometry" />
        </mxCell>
        <mxCell id="IorvdKRKqagVmVlc04_W-216" value="" style="rounded=1;whiteSpace=wrap;html=1;" parent="1" vertex="1">
          <mxGeometry x="280" y="555" width="40" height="40" as="geometry" />
        </mxCell>
        <mxCell id="IorvdKRKqagVmVlc04_W-218" value="" style="rounded=1;whiteSpace=wrap;html=1;" parent="1" vertex="1">
          <mxGeometry x="320" y="560" width="40" height="40" as="geometry" />
        </mxCell>
        <mxCell id="IorvdKRKqagVmVlc04_W-220" value="" style="rounded=1;whiteSpace=wrap;html=1;fillColor=#CCCCCC;" parent="1" vertex="1">
          <mxGeometry x="120" y="565" width="40" height="40" as="geometry" />
        </mxCell>
        <mxCell id="IorvdKRKqagVmVlc04_W-222" value="" style="rounded=1;whiteSpace=wrap;html=1;" parent="1" vertex="1">
          <mxGeometry x="160" y="605" width="40" height="40" as="geometry" />
        </mxCell>
        <mxCell id="IorvdKRKqagVmVlc04_W-224" value="" style="rounded=1;whiteSpace=wrap;html=1;" parent="1" vertex="1">
          <mxGeometry x="200" y="595" width="40" height="40" as="geometry" />
        </mxCell>
        <mxCell id="IorvdKRKqagVmVlc04_W-226" value="" style="rounded=1;whiteSpace=wrap;html=1;" parent="1" vertex="1">
          <mxGeometry x="240" y="585" width="40" height="40" as="geometry" />
        </mxCell>
        <mxCell id="IorvdKRKqagVmVlc04_W-228" value="" style="rounded=1;whiteSpace=wrap;html=1;" parent="1" vertex="1">
          <mxGeometry x="280" y="595" width="40" height="40" as="geometry" />
        </mxCell>
        <mxCell id="IorvdKRKqagVmVlc04_W-230" value="" style="rounded=1;whiteSpace=wrap;html=1;" parent="1" vertex="1">
          <mxGeometry x="320" y="600" width="40" height="40" as="geometry" />
        </mxCell>
        <mxCell id="IorvdKRKqagVmVlc04_W-232" value="" style="rounded=1;whiteSpace=wrap;html=1;fillColor=#CCCCCC;" parent="1" vertex="1">
          <mxGeometry x="120" y="605" width="40" height="40" as="geometry" />
        </mxCell>
        <mxCell id="IorvdKRKqagVmVlc04_W-234" value="" style="rounded=1;whiteSpace=wrap;html=1;" parent="1" vertex="1">
          <mxGeometry x="160" y="645" width="40" height="40" as="geometry" />
        </mxCell>
        <mxCell id="IorvdKRKqagVmVlc04_W-236" value="" style="rounded=1;whiteSpace=wrap;html=1;" parent="1" vertex="1">
          <mxGeometry x="200" y="635" width="40" height="40" as="geometry" />
        </mxCell>
        <mxCell id="IorvdKRKqagVmVlc04_W-238" value="" style="rounded=1;whiteSpace=wrap;html=1;" parent="1" vertex="1">
          <mxGeometry x="240" y="625" width="40" height="40" as="geometry" />
        </mxCell>
        <mxCell id="IorvdKRKqagVmVlc04_W-240" value="" style="rounded=1;whiteSpace=wrap;html=1;" parent="1" vertex="1">
          <mxGeometry x="280" y="635" width="40" height="40" as="geometry" />
        </mxCell>
        <mxCell id="IorvdKRKqagVmVlc04_W-242" value="" style="rounded=1;whiteSpace=wrap;html=1;" parent="1" vertex="1">
          <mxGeometry x="320" y="640" width="40" height="40" as="geometry" />
        </mxCell>
        <mxCell id="IorvdKRKqagVmVlc04_W-244" value="" style="rounded=1;whiteSpace=wrap;html=1;fillColor=#CCCCCC;" parent="1" vertex="1">
          <mxGeometry x="120" y="645" width="40" height="40" as="geometry" />
        </mxCell>
        <mxCell id="IorvdKRKqagVmVlc04_W-246" value="" style="rounded=1;whiteSpace=wrap;html=1;fillColor=#CCCCCC;" parent="1" vertex="1">
          <mxGeometry x="260" y="685" width="40" height="40" as="geometry" />
        </mxCell>
        <mxCell id="IorvdKRKqagVmVlc04_W-248" value="" style="rounded=1;whiteSpace=wrap;html=1;rotation=15;fillColor=#CCCCCC;" parent="1" vertex="1">
          <mxGeometry x="310" y="690" width="40" height="40" as="geometry" />
        </mxCell>
        <mxCell id="IorvdKRKqagVmVlc04_W-249" value="" style="rounded=1;whiteSpace=wrap;html=1;rotation=30;fillColor=#CCCCCC;" parent="1" vertex="1">
          <mxGeometry x="360" y="690" width="40" height="60" as="geometry" />
        </mxCell>
        <mxCell id="IorvdKRKqagVmVlc04_W-251" value="" style="rounded=1;whiteSpace=wrap;html=1;" parent="1" vertex="1">
          <mxGeometry x="480" y="560" width="40" height="40" as="geometry" />
        </mxCell>
        <mxCell id="IorvdKRKqagVmVlc04_W-252" value="F7" style="text;html=1;strokeColor=none;fillColor=none;align=center;verticalAlign=middle;whiteSpace=wrap;rounded=0;" parent="1" vertex="1">
          <mxGeometry x="240" y="590" width="40" height="30" as="geometry" />
        </mxCell>
        <mxCell id="IorvdKRKqagVmVlc04_W-253" value="" style="rounded=1;whiteSpace=wrap;html=1;" parent="1" vertex="1">
          <mxGeometry x="520" y="555" width="40" height="40" as="geometry" />
        </mxCell>
        <mxCell id="IorvdKRKqagVmVlc04_W-254" value="F8" style="text;html=1;strokeColor=none;fillColor=none;align=center;verticalAlign=middle;whiteSpace=wrap;rounded=0;" parent="1" vertex="1">
          <mxGeometry x="280" y="600" width="40" height="30" as="geometry" />
        </mxCell>
        <mxCell id="IorvdKRKqagVmVlc04_W-255" value="" style="rounded=1;whiteSpace=wrap;html=1;" parent="1" vertex="1">
          <mxGeometry x="560" y="545" width="40" height="40" as="geometry" />
        </mxCell>
        <mxCell id="IorvdKRKqagVmVlc04_W-256" value="F9" style="text;html=1;strokeColor=none;fillColor=none;align=center;verticalAlign=middle;whiteSpace=wrap;rounded=0;" parent="1" vertex="1">
          <mxGeometry x="160" y="650" width="40" height="30" as="geometry" />
        </mxCell>
        <mxCell id="IorvdKRKqagVmVlc04_W-257" value="" style="rounded=1;whiteSpace=wrap;html=1;" parent="1" vertex="1">
          <mxGeometry x="600" y="555" width="40" height="40" as="geometry" />
        </mxCell>
        <mxCell id="IorvdKRKqagVmVlc04_W-258" value="F10" style="text;html=1;strokeColor=none;fillColor=none;align=center;verticalAlign=middle;whiteSpace=wrap;rounded=0;" parent="1" vertex="1">
          <mxGeometry x="200" y="640" width="40" height="30" as="geometry" />
        </mxCell>
        <mxCell id="IorvdKRKqagVmVlc04_W-259" value="" style="rounded=1;whiteSpace=wrap;html=1;" parent="1" vertex="1">
          <mxGeometry x="640" y="565" width="40" height="40" as="geometry" />
        </mxCell>
        <mxCell id="IorvdKRKqagVmVlc04_W-260" value="F11" style="text;html=1;strokeColor=none;fillColor=none;align=center;verticalAlign=middle;whiteSpace=wrap;rounded=0;" parent="1" vertex="1">
          <mxGeometry x="240" y="630" width="40" height="30" as="geometry" />
        </mxCell>
        <mxCell id="IorvdKRKqagVmVlc04_W-261" value="" style="rounded=1;whiteSpace=wrap;html=1;fillColor=#CCCCCC;" parent="1" vertex="1">
          <mxGeometry x="680" y="565" width="40" height="40" as="geometry" />
        </mxCell>
        <mxCell id="IorvdKRKqagVmVlc04_W-262" value="F12" style="text;html=1;strokeColor=none;fillColor=none;align=center;verticalAlign=middle;whiteSpace=wrap;rounded=0;" parent="1" vertex="1">
          <mxGeometry x="280" y="640" width="40" height="30" as="geometry" />
        </mxCell>
        <mxCell id="IorvdKRKqagVmVlc04_W-263" value="" style="rounded=1;whiteSpace=wrap;html=1;" parent="1" vertex="1">
          <mxGeometry x="480" y="600" width="40" height="40" as="geometry" />
        </mxCell>
        <mxCell id="IorvdKRKqagVmVlc04_W-264" value="pgup" style="text;html=1;strokeColor=none;fillColor=none;align=center;verticalAlign=middle;whiteSpace=wrap;rounded=0;" parent="1" vertex="1">
          <mxGeometry x="480" y="605" width="40" height="30" as="geometry" />
        </mxCell>
        <mxCell id="IorvdKRKqagVmVlc04_W-265" value="" style="rounded=1;whiteSpace=wrap;html=1;" parent="1" vertex="1">
          <mxGeometry x="520" y="595" width="40" height="40" as="geometry" />
        </mxCell>
        <mxCell id="IorvdKRKqagVmVlc04_W-267" value="" style="rounded=1;whiteSpace=wrap;html=1;" parent="1" vertex="1">
          <mxGeometry x="560" y="585" width="40" height="40" as="geometry" />
        </mxCell>
        <mxCell id="IorvdKRKqagVmVlc04_W-269" value="" style="rounded=1;whiteSpace=wrap;html=1;" parent="1" vertex="1">
          <mxGeometry x="600" y="595" width="40" height="40" as="geometry" />
        </mxCell>
        <mxCell id="IorvdKRKqagVmVlc04_W-271" value="" style="rounded=1;whiteSpace=wrap;html=1;" parent="1" vertex="1">
          <mxGeometry x="640" y="605" width="40" height="40" as="geometry" />
        </mxCell>
        <mxCell id="IorvdKRKqagVmVlc04_W-272" value="shift" style="text;html=1;strokeColor=#d79b00;fillColor=#ffe6cc;align=center;verticalAlign=middle;whiteSpace=wrap;rounded=0;" parent="1" vertex="1">
          <mxGeometry x="640" y="610" width="40" height="30" as="geometry" />
        </mxCell>
        <mxCell id="IorvdKRKqagVmVlc04_W-273" value="" style="rounded=1;whiteSpace=wrap;html=1;fillColor=#CCCCCC;" parent="1" vertex="1">
          <mxGeometry x="680" y="605" width="40" height="40" as="geometry" />
        </mxCell>
        <mxCell id="IorvdKRKqagVmVlc04_W-275" value="" style="rounded=1;whiteSpace=wrap;html=1;" parent="1" vertex="1">
          <mxGeometry x="480" y="640" width="40" height="40" as="geometry" />
        </mxCell>
        <mxCell id="IorvdKRKqagVmVlc04_W-276" value="pgdn" style="text;html=1;strokeColor=none;fillColor=none;align=center;verticalAlign=middle;whiteSpace=wrap;rounded=0;" parent="1" vertex="1">
          <mxGeometry x="480" y="645" width="40" height="30" as="geometry" />
        </mxCell>
        <mxCell id="IorvdKRKqagVmVlc04_W-277" value="" style="rounded=1;whiteSpace=wrap;html=1;" parent="1" vertex="1">
          <mxGeometry x="520" y="635" width="40" height="40" as="geometry" />
        </mxCell>
        <mxCell id="IorvdKRKqagVmVlc04_W-278" value="home" style="text;html=1;strokeColor=none;fillColor=none;align=center;verticalAlign=middle;whiteSpace=wrap;rounded=0;" parent="1" vertex="1">
          <mxGeometry x="520" y="640" width="40" height="30" as="geometry" />
        </mxCell>
        <mxCell id="IorvdKRKqagVmVlc04_W-279" value="" style="rounded=1;whiteSpace=wrap;html=1;" parent="1" vertex="1">
          <mxGeometry x="560" y="625" width="40" height="40" as="geometry" />
        </mxCell>
        <mxCell id="IorvdKRKqagVmVlc04_W-281" value="" style="rounded=1;whiteSpace=wrap;html=1;" parent="1" vertex="1">
          <mxGeometry x="600" y="635" width="40" height="40" as="geometry" />
        </mxCell>
        <mxCell id="IorvdKRKqagVmVlc04_W-282" value="end" style="text;html=1;strokeColor=none;fillColor=none;align=center;verticalAlign=middle;whiteSpace=wrap;rounded=0;" parent="1" vertex="1">
          <mxGeometry x="600" y="640" width="40" height="30" as="geometry" />
        </mxCell>
        <mxCell id="IorvdKRKqagVmVlc04_W-283" value="" style="rounded=1;whiteSpace=wrap;html=1;" parent="1" vertex="1">
          <mxGeometry x="640" y="645" width="40" height="40" as="geometry" />
        </mxCell>
        <mxCell id="IorvdKRKqagVmVlc04_W-285" value="" style="rounded=1;whiteSpace=wrap;html=1;fillColor=#CCCCCC;" parent="1" vertex="1">
          <mxGeometry x="680" y="645" width="40" height="40" as="geometry" />
        </mxCell>
        <mxCell id="IorvdKRKqagVmVlc04_W-287" value="" style="rounded=1;whiteSpace=wrap;html=1;fillColor=#CCCCCC;" parent="1" vertex="1">
          <mxGeometry x="540" y="685" width="40" height="40" as="geometry" />
        </mxCell>
        <mxCell id="IorvdKRKqagVmVlc04_W-289" value="" style="rounded=1;whiteSpace=wrap;html=1;rotation=-15;fillColor=#4D4D4D;" parent="1" vertex="1">
          <mxGeometry x="490" y="690" width="40" height="40" as="geometry" />
        </mxCell>
        <mxCell id="IorvdKRKqagVmVlc04_W-290" value="" style="rounded=1;whiteSpace=wrap;html=1;rotation=-30;fillColor=#FFFFFF;" parent="1" vertex="1">
          <mxGeometry x="440" y="690" width="40" height="60" as="geometry" />
        </mxCell>
        <mxCell id="IorvdKRKqagVmVlc04_W-292" value="" style="shape=flexArrow;endArrow=classic;html=1;rounded=0;endWidth=7.586206896551724;endSize=3.151724137931035;" parent="1" edge="1">
          <mxGeometry width="50" height="50" relative="1" as="geometry">
            <mxPoint x="550" y="614.83" as="sourcePoint" />
            <mxPoint x="530" y="614.83" as="targetPoint" />
          </mxGeometry>
        </mxCell>
        <mxCell id="IorvdKRKqagVmVlc04_W-293" value="" style="shape=flexArrow;endArrow=classic;html=1;rounded=0;endWidth=7.586206896551724;endSize=3.151724137931035;" parent="1" edge="1">
          <mxGeometry width="50" height="50" relative="1" as="geometry">
            <mxPoint x="610" y="614.83" as="sourcePoint" />
            <mxPoint x="630" y="615" as="targetPoint" />
          </mxGeometry>
        </mxCell>
        <mxCell id="IorvdKRKqagVmVlc04_W-294" value="" style="shape=flexArrow;endArrow=classic;html=1;rounded=0;endWidth=7.586206896551724;endSize=3.151724137931035;" parent="1" edge="1">
          <mxGeometry width="50" height="50" relative="1" as="geometry">
            <mxPoint x="579.67" y="615" as="sourcePoint" />
            <mxPoint x="579.67" y="595" as="targetPoint" />
          </mxGeometry>
        </mxCell>
        <mxCell id="IorvdKRKqagVmVlc04_W-295" value="" style="shape=flexArrow;endArrow=classic;html=1;rounded=0;endWidth=7.586206896551724;endSize=3.151724137931035;" parent="1" edge="1">
          <mxGeometry width="50" height="50" relative="1" as="geometry">
            <mxPoint x="579.67" y="635" as="sourcePoint" />
            <mxPoint x="579.67" y="655" as="targetPoint" />
          </mxGeometry>
        </mxCell>
        <mxCell id="IorvdKRKqagVmVlc04_W-307" value="" style="group" parent="1" vertex="1" connectable="0">
          <mxGeometry x="690" y="172" width="20" height="14" as="geometry" />
        </mxCell>
        <mxCell id="IorvdKRKqagVmVlc04_W-297" value="" style="html=1;shadow=0;dashed=0;align=center;verticalAlign=middle;shape=mxgraph.arrows2.arrow;dy=0;dx=7.8;notch=0;fillColor=#FFFFFF;" parent="IorvdKRKqagVmVlc04_W-307" vertex="1">
          <mxGeometry width="20" height="14" as="geometry" />
        </mxCell>
        <mxCell id="IorvdKRKqagVmVlc04_W-305" value="" style="endArrow=none;html=1;rounded=0;" parent="IorvdKRKqagVmVlc04_W-307" edge="1">
          <mxGeometry width="50" height="50" relative="1" as="geometry">
            <mxPoint x="4" y="11.666666666666664" as="sourcePoint" />
            <mxPoint x="12" y="2.333333333333333" as="targetPoint" />
          </mxGeometry>
        </mxCell>
        <mxCell id="IorvdKRKqagVmVlc04_W-306" value="" style="endArrow=none;html=1;rounded=0;" parent="IorvdKRKqagVmVlc04_W-307" edge="1">
          <mxGeometry width="50" height="50" relative="1" as="geometry">
            <mxPoint x="4" y="2.333333333333333" as="sourcePoint" />
            <mxPoint x="12" y="11.666666666666664" as="targetPoint" />
          </mxGeometry>
        </mxCell>
        <mxCell id="IorvdKRKqagVmVlc04_W-309" value="" style="group" parent="1" vertex="1" connectable="0">
          <mxGeometry x="497.5" y="297.5" width="25" height="15" as="geometry" />
        </mxCell>
        <mxCell id="IorvdKRKqagVmVlc04_W-310" value="" style="html=1;shadow=0;dashed=0;align=center;verticalAlign=middle;shape=mxgraph.arrows2.arrow;dy=0;dx=7.8;notch=0;fillColor=#FFFFFF;rotation=-180;" parent="IorvdKRKqagVmVlc04_W-309" vertex="1">
          <mxGeometry width="22.5" height="15" as="geometry" />
        </mxCell>
        <mxCell id="IorvdKRKqagVmVlc04_W-311" value="" style="endArrow=none;html=1;rounded=0;" parent="IorvdKRKqagVmVlc04_W-309" edge="1">
          <mxGeometry width="50" height="50" relative="1" as="geometry">
            <mxPoint x="9" y="12.5" as="sourcePoint" />
            <mxPoint x="19" y="2.5" as="targetPoint" />
          </mxGeometry>
        </mxCell>
        <mxCell id="IorvdKRKqagVmVlc04_W-312" value="" style="endArrow=none;html=1;rounded=0;" parent="IorvdKRKqagVmVlc04_W-309" edge="1">
          <mxGeometry width="50" height="50" relative="1" as="geometry">
            <mxPoint x="9" y="2.5" as="sourcePoint" />
            <mxPoint x="19" y="12.5" as="targetPoint" />
          </mxGeometry>
        </mxCell>
        <mxCell id="IorvdKRKqagVmVlc04_W-315" value="print" style="text;html=1;strokeColor=none;fillColor=none;align=center;verticalAlign=middle;whiteSpace=wrap;rounded=0;" parent="1" vertex="1">
          <mxGeometry x="520" y="560" width="40" height="30" as="geometry" />
        </mxCell>
        <mxCell id="IorvdKRKqagVmVlc04_W-320" value="app" style="text;html=1;strokeColor=none;fillColor=none;align=center;verticalAlign=middle;whiteSpace=wrap;rounded=0;" parent="1" vertex="1">
          <mxGeometry x="640" y="650" width="40" height="30" as="geometry" />
        </mxCell>
        <mxCell id="IorvdKRKqagVmVlc04_W-339" value="" style="ellipse;whiteSpace=wrap;html=1;aspect=fixed;fillColor=#FFFFFF;" parent="1" vertex="1">
          <mxGeometry x="270" y="235" width="20" height="20" as="geometry" />
        </mxCell>
        <mxCell id="IorvdKRKqagVmVlc04_W-337" value="v+" style="text;html=1;strokeColor=none;fillColor=none;align=center;verticalAlign=middle;whiteSpace=wrap;rounded=0;" parent="1" vertex="1">
          <mxGeometry x="260" y="230" width="40" height="30" as="geometry" />
        </mxCell>
        <mxCell id="IorvdKRKqagVmVlc04_W-340" value="" style="ellipse;whiteSpace=wrap;html=1;aspect=fixed;fillColor=#FFFFFF;" parent="1" vertex="1">
          <mxGeometry x="230" y="235" width="20" height="20" as="geometry" />
        </mxCell>
        <mxCell id="IorvdKRKqagVmVlc04_W-341" value="v-" style="text;html=1;strokeColor=none;fillColor=none;align=center;verticalAlign=middle;whiteSpace=wrap;rounded=0;" parent="1" vertex="1">
          <mxGeometry x="220" y="230" width="40" height="30" as="geometry" />
        </mxCell>
        <mxCell id="IorvdKRKqagVmVlc04_W-343" value="gui" style="text;html=1;strokeColor=none;fillColor=none;align=center;verticalAlign=middle;whiteSpace=wrap;rounded=0;" parent="1" vertex="1">
          <mxGeometry x="540" y="285" width="40" height="30" as="geometry" />
        </mxCell>
        <mxCell id="IorvdKRKqagVmVlc04_W-345" value="- _" style="text;html=1;strokeColor=none;fillColor=none;align=center;verticalAlign=middle;whiteSpace=wrap;rounded=0;" parent="1" vertex="1">
          <mxGeometry x="640" y="245" width="40" height="30" as="geometry" />
        </mxCell>
        <mxCell id="IorvdKRKqagVmVlc04_W-178" value="}" style="text;html=1;strokeColor=none;fillColor=none;align=center;verticalAlign=middle;whiteSpace=wrap;rounded=0;" parent="1" vertex="1">
          <mxGeometry x="640" y="370" width="40" height="30" as="geometry" />
        </mxCell>
        <mxCell id="IorvdKRKqagVmVlc04_W-129" value="{" style="text;html=1;strokeColor=none;fillColor=none;align=center;verticalAlign=middle;whiteSpace=wrap;rounded=0;" parent="1" vertex="1">
          <mxGeometry x="160" y="370" width="40" height="30" as="geometry" />
        </mxCell>
        <mxCell id="UwzU6h2htdsqkzmlYUpz-6" value="caps" style="text;html=1;strokeColor=#d79b00;fillColor=#ffe6cc;align=center;verticalAlign=middle;whiteSpace=wrap;rounded=0;" parent="1" vertex="1">
          <mxGeometry x="560" y="550" width="40" height="30" as="geometry" />
        </mxCell>
        <mxCell id="eAuh8KrNVISEDYi8A-KC-1" value="ctrl" style="text;html=1;strokeColor=none;fillColor=none;align=center;verticalAlign=middle;whiteSpace=wrap;rounded=0;" parent="1" vertex="1">
          <mxGeometry x="260" y="285" width="40" height="30" as="geometry" />
        </mxCell>
        <mxCell id="MzDrUSzlnoG0uZJxYw3c-3" value="` ~" style="text;html=1;strokeColor=none;fillColor=none;align=center;verticalAlign=middle;whiteSpace=wrap;rounded=0;" parent="1" vertex="1">
          <mxGeometry x="680" y="245" width="40" height="30" as="geometry" />
        </mxCell>
        <mxCell id="MzDrUSzlnoG0uZJxYw3c-11" value="" style="ellipse;whiteSpace=wrap;html=1;aspect=fixed;fillColor=#FFFFFF;" parent="1" vertex="1">
          <mxGeometry x="230" y="195" width="20" height="20" as="geometry" />
        </mxCell>
        <mxCell id="MzDrUSzlnoG0uZJxYw3c-9" value="" style="sketch=0;aspect=fixed;pointerEvents=1;shadow=0;dashed=0;html=1;strokeColor=none;labelPosition=center;verticalLabelPosition=bottom;verticalAlign=top;align=center;fillColor=#000000;shape=mxgraph.mscae.enterprise.mouse" parent="1" vertex="1">
          <mxGeometry x="235.5" y="197.5" width="9" height="15" as="geometry" />
        </mxCell>
        <mxCell id="MzDrUSzlnoG0uZJxYw3c-13" value="" style="sketch=0;aspect=fixed;pointerEvents=1;shadow=0;dashed=0;html=1;strokeColor=none;labelPosition=center;verticalLabelPosition=bottom;verticalAlign=top;align=center;fillColor=#000000;shape=mxgraph.mscae.enterprise.mouse" parent="1" vertex="1">
          <mxGeometry x="375.5" y="307.5" width="9" height="15" as="geometry" />
        </mxCell>
        <mxCell id="IorvdKRKqagVmVlc04_W-217" value="F5" style="text;html=1;strokeColor=none;fillColor=none;align=center;verticalAlign=middle;whiteSpace=wrap;rounded=0;" parent="1" vertex="1">
          <mxGeometry x="159" y="610" width="40" height="30" as="geometry" />
        </mxCell>
        <mxCell id="IorvdKRKqagVmVlc04_W-219" value="F6" style="text;html=1;strokeColor=none;fillColor=none;align=center;verticalAlign=middle;whiteSpace=wrap;rounded=0;" parent="1" vertex="1">
          <mxGeometry x="199" y="600" width="40" height="30" as="geometry" />
        </mxCell>
        <mxCell id="IorvdKRKqagVmVlc04_W-215" value="F4" style="text;html=1;strokeColor=none;fillColor=none;align=center;verticalAlign=middle;whiteSpace=wrap;rounded=0;" parent="1" vertex="1">
          <mxGeometry x="280" y="560" width="40" height="30" as="geometry" />
        </mxCell>
        <mxCell id="IorvdKRKqagVmVlc04_W-213" value="F3" style="text;html=1;strokeColor=none;fillColor=none;align=center;verticalAlign=middle;whiteSpace=wrap;rounded=0;" parent="1" vertex="1">
          <mxGeometry x="239" y="550" width="40" height="30" as="geometry" />
        </mxCell>
        <mxCell id="IorvdKRKqagVmVlc04_W-211" value="F2" style="text;html=1;strokeColor=none;fillColor=none;align=center;verticalAlign=middle;whiteSpace=wrap;rounded=0;" parent="1" vertex="1">
          <mxGeometry x="200" y="560" width="40" height="30" as="geometry" />
        </mxCell>
        <mxCell id="IorvdKRKqagVmVlc04_W-221" value="F1" style="text;html=1;strokeColor=none;fillColor=none;align=center;verticalAlign=middle;whiteSpace=wrap;rounded=0;" parent="1" vertex="1">
          <mxGeometry x="160" y="570" width="40" height="30" as="geometry" />
        </mxCell>
        <mxCell id="MzDrUSzlnoG0uZJxYw3c-21" value="" style="ellipse;whiteSpace=wrap;html=1;aspect=fixed;fillColor=#FFFFFF;" parent="1" vertex="1">
          <mxGeometry x="590" y="197.5" width="20" height="20" as="geometry" />
        </mxCell>
        <mxCell id="IorvdKRKqagVmVlc04_W-109" value="ent" style="text;html=1;strokeColor=#d79b00;fillColor=#ffe6cc;align=center;verticalAlign=middle;whiteSpace=wrap;rounded=0;" parent="1" vertex="1">
          <mxGeometry x="585" y="198.75" width="30" height="17.5" as="geometry" />
        </mxCell>
        <mxCell id="MzDrUSzlnoG0uZJxYw3c-2" value="tab" style="text;html=1;strokeColor=none;fillColor=none;align=center;verticalAlign=middle;whiteSpace=wrap;rounded=0;" parent="1" vertex="1">
          <mxGeometry x="120" y="205" width="40" height="30" as="geometry" />
        </mxCell>
        <mxCell id="MzDrUSzlnoG0uZJxYw3c-24" value="shift" style="text;html=1;strokeColor=none;fillColor=none;align=center;verticalAlign=middle;whiteSpace=wrap;rounded=0;" parent="1" vertex="1">
          <mxGeometry x="310" y="290" width="40" height="30" as="geometry" />
        </mxCell>
        <mxCell id="vY0IlSZjWSzvMpylJrFO-2" value="alt" style="text;html=1;strokeColor=#d79b00;fillColor=#ffe6cc;align=center;verticalAlign=middle;whiteSpace=wrap;rounded=0;" parent="1" vertex="1">
          <mxGeometry x="680" y="205" width="40" height="30" as="geometry" />
        </mxCell>
        <mxCell id="vY0IlSZjWSzvMpylJrFO-5" value="" style="group" parent="1" vertex="1" connectable="0">
          <mxGeometry x="130" y="173" width="20" height="14" as="geometry" />
        </mxCell>
        <mxCell id="vY0IlSZjWSzvMpylJrFO-6" value="" style="html=1;shadow=0;dashed=0;align=center;verticalAlign=middle;shape=mxgraph.arrows2.arrow;dy=0;dx=7.8;notch=0;fillColor=#FFFFFF;" parent="vY0IlSZjWSzvMpylJrFO-5" vertex="1">
          <mxGeometry width="20" height="14" as="geometry" />
        </mxCell>
        <mxCell id="vY0IlSZjWSzvMpylJrFO-7" value="" style="endArrow=none;html=1;rounded=0;" parent="vY0IlSZjWSzvMpylJrFO-5" edge="1">
          <mxGeometry width="50" height="50" relative="1" as="geometry">
            <mxPoint x="4" y="11.666666666666664" as="sourcePoint" />
            <mxPoint x="12" y="2.333333333333333" as="targetPoint" />
          </mxGeometry>
        </mxCell>
        <mxCell id="vY0IlSZjWSzvMpylJrFO-8" value="" style="endArrow=none;html=1;rounded=0;" parent="vY0IlSZjWSzvMpylJrFO-5" edge="1">
          <mxGeometry width="50" height="50" relative="1" as="geometry">
            <mxPoint x="4" y="2.333333333333333" as="sourcePoint" />
            <mxPoint x="12" y="11.666666666666664" as="targetPoint" />
          </mxGeometry>
        </mxCell>
        <mxCell id="IorvdKRKqagVmVlc04_W-2" value="Q" style="text;html=1;strokeColor=none;fillColor=none;align=center;verticalAlign=middle;whiteSpace=wrap;rounded=0;" parent="1" vertex="1">
          <mxGeometry x="160" y="165" width="40" height="30" as="geometry" />
        </mxCell>
        <mxCell id="IorvdKRKqagVmVlc04_W-95" value="&#39; &quot;" style="text;html=1;strokeColor=none;fillColor=none;align=center;verticalAlign=middle;whiteSpace=wrap;rounded=0;" parent="1" vertex="1">
          <mxGeometry x="640" y="167.5" width="40" height="30" as="geometry" />
        </mxCell>
        <mxCell id="NCYj7jhMG-7_RZQ3jLF3-7" value="" style="rounded=1;whiteSpace=wrap;html=1;" parent="1" vertex="1">
          <mxGeometry x="265" y="195" width="30" height="20" as="geometry" />
        </mxCell>
        <mxCell id="UwzU6h2htdsqkzmlYUpz-1" value="scroll" style="text;html=1;strokeColor=none;fillColor=none;align=center;verticalAlign=middle;whiteSpace=wrap;rounded=0;" parent="1" vertex="1">
          <mxGeometry x="260" y="190" width="40" height="30" as="geometry" />
        </mxCell>
        <mxCell id="NCYj7jhMG-7_RZQ3jLF3-8" value="esc" style="text;html=1;strokeColor=#d79b00;fillColor=#ffe6cc;align=center;verticalAlign=middle;whiteSpace=wrap;rounded=0;" parent="1" vertex="1">
          <mxGeometry x="119" y="245" width="40" height="30" as="geometry" />
        </mxCell>
        <mxCell id="H93FktezhGR6cyXtWFsx-1" value="" style="ellipse;whiteSpace=wrap;html=1;aspect=fixed;fillColor=#FFFFFF;" vertex="1" parent="1">
          <mxGeometry x="590" y="235" width="20" height="20" as="geometry" />
        </mxCell>
        <mxCell id="H93FktezhGR6cyXtWFsx-2" value="!" style="text;html=1;strokeColor=none;fillColor=none;align=center;verticalAlign=middle;whiteSpace=wrap;rounded=0;" vertex="1" parent="1">
          <mxGeometry x="580" y="230" width="40" height="30" as="geometry" />
        </mxCell>
        <mxCell id="H93FktezhGR6cyXtWFsx-4" value="" style="ellipse;whiteSpace=wrap;html=1;aspect=fixed;fillColor=#FFFFFF;" vertex="1" parent="1">
          <mxGeometry x="550.5" y="235" width="20" height="20" as="geometry" />
        </mxCell>
        <mxCell id="H93FktezhGR6cyXtWFsx-5" value="?" style="text;html=1;strokeColor=none;fillColor=none;align=center;verticalAlign=middle;whiteSpace=wrap;rounded=0;" vertex="1" parent="1">
          <mxGeometry x="540" y="230" width="40" height="30" as="geometry" />
        </mxCell>
        <mxCell id="H93FktezhGR6cyXtWFsx-6" value="caps" style="text;html=1;strokeColor=#82b366;fillColor=#d5e8d4;align=center;verticalAlign=middle;whiteSpace=wrap;rounded=0;" vertex="1" parent="1">
          <mxGeometry x="310" y="695" width="40" height="30" as="geometry" />
        </mxCell>
        <mxCell id="H93FktezhGR6cyXtWFsx-7" value="ent" style="text;html=1;strokeColor=#82b366;fillColor=#d5e8d4;align=center;verticalAlign=middle;whiteSpace=wrap;rounded=0;" vertex="1" parent="1">
          <mxGeometry x="720" y="205" width="40" height="30" as="geometry" />
        </mxCell>
        <mxCell id="H93FktezhGR6cyXtWFsx-8" value=". :" style="text;html=1;strokeColor=#82b366;fillColor=#d5e8d4;align=center;verticalAlign=middle;whiteSpace=wrap;rounded=0;" vertex="1" parent="1">
          <mxGeometry x="730" y="410" width="40" height="30" as="geometry" />
        </mxCell>
        <mxCell id="H93FktezhGR6cyXtWFsx-9" value="add" style="text;html=1;strokeColor=#82b366;fillColor=#d5e8d4;align=center;verticalAlign=middle;whiteSpace=wrap;rounded=0;" vertex="1" parent="1">
          <mxGeometry x="424.5" y="100" width="50" height="30" as="geometry" />
        </mxCell>
        <mxCell id="H93FktezhGR6cyXtWFsx-10" value="remove" style="text;html=1;strokeColor=#d79b00;fillColor=#ffe6cc;align=center;verticalAlign=middle;whiteSpace=wrap;rounded=0;" vertex="1" parent="1">
          <mxGeometry x="360" y="100" width="54.5" height="30" as="geometry" />
        </mxCell>
        <mxCell id="H93FktezhGR6cyXtWFsx-12" value="!?" style="text;html=1;strokeColor=#82b366;fillColor=#d5e8d4;align=center;verticalAlign=middle;whiteSpace=wrap;rounded=0;" vertex="1" parent="1">
          <mxGeometry x="640" y="275" width="40" height="30" as="geometry" />
        </mxCell>
        <mxCell id="H93FktezhGR6cyXtWFsx-13" value="esc" style="text;html=1;strokeColor=#82b366;fillColor=#d5e8d4;align=center;verticalAlign=middle;whiteSpace=wrap;rounded=0;" vertex="1" parent="1">
          <mxGeometry x="80" y="165" width="40" height="30" as="geometry" />
        </mxCell>
        <mxCell id="H93FktezhGR6cyXtWFsx-14" value="alt" style="text;html=1;strokeColor=#82b366;fillColor=#d5e8d4;align=center;verticalAlign=middle;whiteSpace=wrap;rounded=0;" vertex="1" parent="1">
          <mxGeometry x="79" y="245" width="40" height="30" as="geometry" />
        </mxCell>
        <mxCell id="H93FktezhGR6cyXtWFsx-18" value="- _" style="text;html=1;strokeColor=#82b366;fillColor=#d5e8d4;align=center;verticalAlign=middle;whiteSpace=wrap;rounded=0;" vertex="1" parent="1">
          <mxGeometry x="720" y="245" width="40" height="30" as="geometry" />
        </mxCell>
        <mxCell id="H93FktezhGR6cyXtWFsx-19" value="` ~" style="text;html=1;strokeColor=#82b366;fillColor=#d5e8d4;align=center;verticalAlign=middle;whiteSpace=wrap;rounded=0;" vertex="1" parent="1">
          <mxGeometry x="720" y="165" width="40" height="30" as="geometry" />
        </mxCell>
        <mxCell id="H93FktezhGR6cyXtWFsx-20" value="&lt;span style=&quot;color: rgb(0, 0, 0); font-family: Helvetica; font-size: 12px; font-style: normal; font-variant-ligatures: normal; font-variant-caps: normal; font-weight: 400; letter-spacing: normal; orphans: 2; text-align: center; text-indent: 0px; text-transform: none; widows: 2; word-spacing: 0px; -webkit-text-stroke-width: 0px; background-color: rgb(251, 251, 251); text-decoration-thickness: initial; text-decoration-style: initial; text-decoration-color: initial; float: none; display: inline !important;&quot;&gt;del&lt;/span&gt;" style="text;html=1;strokeColor=#82b366;fillColor=#d5e8d4;align=center;verticalAlign=middle;whiteSpace=wrap;rounded=0;" vertex="1" parent="1">
          <mxGeometry x="590" y="155" width="30" height="20" as="geometry" />
        </mxCell>
        <mxCell id="H93FktezhGR6cyXtWFsx-21" value="&lt;span style=&quot;color: rgb(0, 0, 0); font-family: Helvetica; font-size: 12px; font-style: normal; font-variant-ligatures: normal; font-variant-caps: normal; font-weight: 400; letter-spacing: normal; orphans: 2; text-align: center; text-indent: 0px; text-transform: none; widows: 2; word-spacing: 0px; -webkit-text-stroke-width: 0px; background-color: rgb(251, 251, 251); text-decoration-thickness: initial; text-decoration-style: initial; text-decoration-color: initial; float: none; display: inline !important;&quot;&gt;del&lt;/span&gt;" style="text;html=1;strokeColor=#82b366;fillColor=#d5e8d4;align=center;verticalAlign=middle;whiteSpace=wrap;rounded=0;" vertex="1" parent="1">
          <mxGeometry x="225" y="155" width="30" height="20" as="geometry" />
        </mxCell>
      </root>
    </mxGraphModel>
  </diagram>
</mxfile>
